name rise30.2954peak35.7071fall66.7804.mot
datacolumns 19
datarows 17
range 3.70665900000000 3.73332000000000
endheader
time	ground_force1_vx	ground_force1_vy	ground_force1_vz	ground_force1_px	ground_force1_py	ground_force1_pz	ground_force2_vx	ground_force2_vy	ground_force2_vz	ground_force2_px	ground_force2_py	ground_force2_pz	ground_torque1_x	ground_torque1_y	ground_torque1_z	ground_torque2_x	ground_torque2_y	ground_torque2_z	
3.70665900000000	-2.62689500000000	41.60235900000000	-10.76003500000000	0.34766800000000	0.00000000000000	0.09949800000000	-36.13677500000000	790.95447100000001	-57.37882900000000	0.11799200000000	0.00000000000000	-0.09624900000000	0.00000000000000	-7.66080600000000	0.00000000000000	0.00000000000000	-18.94097000000000	0.00000000000000	
3.70831900000000	-2.77179900000000	48.78716800000000	-12.07298500000000	0.35074300000000	0.00000000000000	0.10074000000000	-36.73808200000000	788.33018500000003	-57.10022600000000	0.11750300000000	0.00000000000000	-0.09613000000000	0.00000000000000	-8.66346800000000	0.00000000000000	0.00000000000000	-18.90583100000000	0.00000000000000	
3.70999100000000	-2.83344800000000	56.06779400000000	-13.25628100000000	0.35348200000000	0.00000000000000	0.10186400000000	-37.37316500000000	785.59226999999998	-56.80283000000000	0.11701200000000	0.00000000000000	-0.09600700000000	0.00000000000000	-9.58719700000000	0.00000000000000	0.00000000000000	-18.87587400000000	0.00000000000000	
3.71165800000000	-2.80272300000000	63.35033700000000	-14.28135100000000	0.35593200000000	0.00000000000000	0.10289000000000	-38.04169600000000	782.73851700000000	-56.48631400000000	0.11651700000000	0.00000000000000	-0.09588200000000	0.00000000000000	-10.41068900000000	0.00000000000000	0.00000000000000	-18.85104500000000	0.00000000000000	
3.71332300000000	-2.67412500000000	70.56342100000001	-15.12942300000000	0.35813300000000	0.00000000000000	0.10383300000000	-38.74319600000000	779.76664300000004	-56.15035300000000	0.11601800000000	0.00000000000000	-0.09575300000000	0.00000000000000	-11.11952000000000	0.00000000000000	0.00000000000000	-18.83126200000000	0.00000000000000	
3.71499300000000	-2.44567800000000	77.66041700000000	-15.79161700000000	0.36011800000000	0.00000000000000	0.10470300000000	-39.47703200000000	776.67429500000003	-55.79462300000000	0.11551300000000	0.00000000000000	-0.09562100000000	0.00000000000000	-11.70631500000000	0.00000000000000	0.00000000000000	-18.81641000000000	0.00000000000000	
3.71665700000000	-2.11856500000000	84.61926600000000	-16.26822700000000	0.36191100000000	0.00000000000000	0.10551200000000	-40.24241300000000	773.45905500000003	-55.41881000000000	0.11500300000000	0.00000000000000	-0.09548500000000	0.00000000000000	-12.17032200000000	0.00000000000000	0.00000000000000	-18.80634400000000	0.00000000000000	
3.71832300000000	-1.69657300000000	91.44031200000001	-16.56736600000000	0.36353700000000	0.00000000000000	0.10626700000000	-41.03839400000000	770.11845000000005	-55.02260700000000	0.11448600000000	0.00000000000000	-0.09534700000000	0.00000000000000	-12.51650100000000	0.00000000000000	0.00000000000000	-18.80088900000000	0.00000000000000	
3.71998600000000	-1.18542800000000	98.14266300000000	-16.70320800000000	0.36501300000000	0.00000000000000	0.10697400000000	-41.86387000000000	766.64995599999997	-54.60571700000000	0.11396200000000	0.00000000000000	-0.09520600000000	0.00000000000000	-12.75431100000000	0.00000000000000	0.00000000000000	-18.79983900000000	0.00000000000000	
3.72165700000000	-0.59208500000000	104.75964399999999	-16.69403900000000	0.36635600000000	0.00000000000000	0.10763900000000	-42.71758200000000	763.05101200000001	-54.16786000000000	0.11343000000000	0.00000000000000	-0.09506100000000	0.00000000000000	-12.89633000000000	0.00000000000000	0.00000000000000	-18.80295600000000	0.00000000000000	
3.72332200000000	0.07594500000000	111.33387700000000	-16.56031200000000	0.36757900000000	0.00000000000000	0.10826700000000	-43.59811300000000	759.31902200000002	-53.70877400000000	0.11289000000000	0.00000000000000	-0.09491400000000	0.00000000000000	-12.95685800000000	0.00000000000000	0.00000000000000	-18.80997700000000	0.00000000000000	
3.72499200000000	0.81119700000000	117.91245200000000	-16.32286200000000	0.36869500000000	0.00000000000000	0.10886200000000	-44.50389200000000	755.45137199999999	-53.22821600000000	0.11234100000000	0.00000000000000	-0.09476400000000	0.00000000000000	-12.95062900000000	0.00000000000000	0.00000000000000	-18.82060900000000	0.00000000000000	
3.72665200000000	1.60674200000000	124.54255800000000	-16.00139800000000	0.36971300000000	0.00000000000000	0.10942600000000	-45.43319600000000	751.44543799999997	-52.72597000000000	0.11178300000000	0.00000000000000	-0.09461100000000	0.00000000000000	-12.89170300000000	0.00000000000000	0.00000000000000	-18.83452900000000	0.00000000000000	
3.72832300000000	2.45654000000000	131.26784100000000	-15.61334100000000	0.37064400000000	0.00000000000000	0.10996300000000	-46.38415500000000	747.29859799999997	-52.20184400000000	0.11121600000000	0.00000000000000	-0.09445500000000	0.00000000000000	-12.79260500000000	0.00000000000000	0.00000000000000	-18.85139300000000	0.00000000000000	
3.72999300000000	3.35566600000000	138.12563900000001	-15.17304400000000	0.37149600000000	0.00000000000000	0.11047500000000	-47.35475100000000	743.00824499999999	-51.65568000000000	0.11063800000000	0.00000000000000	-0.09429600000000	0.00000000000000	-12.66373000000000	0.00000000000000	0.00000000000000	-18.87082600000000	0.00000000000000	
3.73165600000000	4.30039400000000	145.14515800000001	-14.69137200000000	0.37227400000000	0.00000000000000	0.11096400000000	-48.34282800000000	738.57179699999995	-51.08735300000000	0.11005100000000	0.00000000000000	-0.09413500000000	0.00000000000000	-12.51301800000000	0.00000000000000	0.00000000000000	-18.89243500000000	0.00000000000000	
3.73332000000000	5.28818100000000	152.34654399999999	-14.17563100000000	0.37298600000000	0.00000000000000	0.11143200000000	-49.34609400000000	733.98671700000000	-50.49677600000000	0.10945300000000	0.00000000000000	-0.09397100000000	0.00000000000000	-12.34586800000000	0.00000000000000	0.00000000000000	-18.91579900000000	0.00000000000000	
